# xmcd
#
# Track frame offsets: 
#        150
#        21199
#        47272
#        75088
#        95363
#        117696
#        139603
#        163231
#        191465
#        212153
#
# Disc length: 3046 seconds
#
# Revision: 0
# Processed by: cddbd v1.5.2PL0 Copyright (c) Steve Scherf et al.
# Submitted via: ExactAudioCopy v0.95a5
#
DISCID=7b0be40a
DTITLE=Kal David - Crossroads Of My Life
DYEAR=2010
DGENRE=Blues
TTITLE0=Say Yeah
TTITLE1=The Visit
TTITLE2=Free
TTITLE3=Heart Of Stone
TTITLE4=Nothing New
TTITLE5=Free Ride
TTITLE6=I Udolize You
TTITLE7=Heartache
TTITLE8=Live It Out To The End
TTITLE9=Crossroads Of My Life
EXTD=
EXTT0=
EXTT1=
EXTT2=
EXTT3=
EXTT4=
EXTT5=
EXTT6=
EXTT7=
EXTT8=
EXTT9=
PLAYORDER=
